<svg width="265" height="295" viewBox="0 0 265 295" fill="none" xmlns="http://www.w3.org/2000/svg">
<g filter="url(#filter0_dd_704_2578)">
<path d="M124.5 14.6188C129.45 11.7607 135.55 11.7607 140.5 14.6188L234.918 69.1312C239.869 71.9893 242.918 77.2714 242.918 82.9876V192.012C242.918 197.729 239.869 203.011 234.918 205.869L140.5 260.381C135.55 263.239 129.45 263.239 124.5 260.381L30.0818 205.869C25.1313 203.011 22.0818 197.729 22.0818 192.012V82.9876C22.0818 77.2714 25.1313 71.9893 30.0818 69.1312L124.5 14.6188Z" fill="white"/>
</g>
<path d="M84.5362 128.739H93.0419C93.076 129.511 93.3317 130.193 93.8089 130.784C94.2862 131.364 94.9169 131.818 95.701 132.148C96.4851 132.466 97.3544 132.625 98.3089 132.625C99.3317 132.625 100.224 132.449 100.985 132.097C101.746 131.733 102.337 131.233 102.758 130.597C103.19 129.949 103.406 129.205 103.406 128.364C103.406 127.5 103.173 126.744 102.707 126.097C102.252 125.449 101.593 124.943 100.729 124.58C99.8658 124.216 98.8317 124.034 97.6271 124.034H93.5192V118.341L100.951 111.114V110.892H86.2919V104.091H111.11V110.159L101.701 119.023V119.295C103.656 119.511 105.303 119.937 106.644 120.574C107.996 121.21 109.082 121.983 109.9 122.892C110.718 123.801 111.315 124.784 111.69 125.841C112.065 126.898 112.252 127.955 112.252 129.011C112.252 131.102 111.638 132.932 110.411 134.5C109.184 136.068 107.519 137.29 105.417 138.165C103.315 139.04 100.94 139.477 98.2919 139.477C95.5874 139.477 93.2067 139.023 91.1499 138.114C89.1044 137.205 87.5021 135.943 86.343 134.33C85.1839 132.716 84.5817 130.852 84.5362 128.739ZM131.441 139.852C128.396 139.852 125.771 139.131 123.566 137.688C121.362 136.233 119.663 134.148 118.469 131.432C117.276 128.705 116.685 125.426 116.697 121.597C116.708 117.767 117.305 114.517 118.487 111.847C119.68 109.165 121.373 107.125 123.566 105.727C125.771 104.318 128.396 103.614 131.441 103.614C134.487 103.614 137.112 104.318 139.316 105.727C141.532 107.125 143.237 109.165 144.43 111.847C145.623 114.528 146.214 117.778 146.202 121.597C146.202 125.437 145.606 128.722 144.413 131.449C143.219 134.176 141.521 136.261 139.316 137.705C137.123 139.136 134.498 139.852 131.441 139.852ZM131.441 132.949C133.259 132.949 134.731 132.023 135.856 130.17C136.981 128.307 137.538 125.449 137.526 121.597C137.526 119.074 137.271 116.994 136.759 115.358C136.248 113.71 135.538 112.483 134.629 111.676C133.719 110.869 132.657 110.466 131.441 110.466C129.634 110.466 128.174 111.381 127.06 113.21C125.947 115.028 125.384 117.824 125.373 121.597C125.362 124.153 125.606 126.273 126.106 127.955C126.617 129.636 127.333 130.892 128.254 131.722C129.174 132.54 130.237 132.949 131.441 132.949ZM165.472 139.852C162.427 139.852 159.802 139.131 157.597 137.688C155.393 136.233 153.694 134.148 152.501 131.432C151.308 128.705 150.717 125.426 150.728 121.597C150.739 117.767 151.336 114.517 152.518 111.847C153.711 109.165 155.404 107.125 157.597 105.727C159.802 104.318 162.427 103.614 165.472 103.614C168.518 103.614 171.143 104.318 173.347 105.727C175.563 107.125 177.268 109.165 178.461 111.847C179.654 114.528 180.245 117.778 180.234 121.597C180.234 125.437 179.637 128.722 178.444 131.449C177.251 134.176 175.552 136.261 173.347 137.705C171.154 139.136 168.529 139.852 165.472 139.852ZM165.472 132.949C167.29 132.949 168.762 132.023 169.887 130.17C171.012 128.307 171.569 125.449 171.558 121.597C171.558 119.074 171.302 116.994 170.79 115.358C170.279 113.71 169.569 112.483 168.66 111.676C167.751 110.869 166.688 110.466 165.472 110.466C163.665 110.466 162.205 111.381 161.092 113.21C159.978 115.028 159.415 117.824 159.404 121.597C159.393 124.153 159.637 126.273 160.137 127.955C160.648 129.636 161.364 130.892 162.285 131.722C163.205 132.54 164.268 132.949 165.472 132.949Z" fill="#18191F"/>
<path d="M51.4473 177H47.4075V163.909H51.6262C52.8961 163.909 53.9828 164.171 54.8862 164.695C55.7896 165.215 56.4821 165.963 56.9636 166.939C57.4451 167.911 57.6859 169.074 57.6859 170.429C57.6859 171.793 57.443 172.967 56.9572 173.951C56.4714 174.931 55.764 175.685 54.8351 176.214C53.9061 176.738 52.7768 177 51.4473 177ZM48.9927 175.594H51.345C52.4274 175.594 53.3244 175.385 54.036 174.967C54.7477 174.55 55.2782 173.955 55.6277 173.184C55.9771 172.413 56.1518 171.494 56.1518 170.429C56.1518 169.372 55.9792 168.462 55.6341 167.7C55.2889 166.933 54.7733 166.344 54.0872 165.935C53.4011 165.522 52.5467 165.315 51.524 165.315H48.9927V175.594ZM64.2569 177.205C63.3109 177.205 62.4949 176.996 61.8088 176.578C61.127 176.156 60.6007 175.568 60.2299 174.814C59.8635 174.055 59.6802 173.173 59.6802 172.168C59.6802 171.162 59.8635 170.276 60.2299 169.509C60.6007 168.737 61.1163 168.136 61.7768 167.706C62.4416 167.271 63.2172 167.054 64.1035 167.054C64.6149 167.054 65.1199 167.139 65.6184 167.31C66.117 167.48 66.5708 167.757 66.9799 168.141C67.389 168.52 67.715 169.023 67.9579 169.649C68.2008 170.276 68.3223 171.047 68.3223 171.963V172.602H60.7541V171.298H66.7882C66.7882 170.744 66.6774 170.25 66.4558 169.815C66.2385 169.381 65.9274 169.038 65.5226 168.786C65.122 168.535 64.649 168.409 64.1035 168.409C63.5027 168.409 62.9828 168.558 62.5439 168.857C62.1092 169.151 61.7747 169.534 61.5403 170.007C61.3059 170.48 61.1887 170.987 61.1887 171.528V172.398C61.1887 173.139 61.3166 173.768 61.5723 174.283C61.8322 174.795 62.1923 175.185 62.6525 175.453C63.1127 175.717 63.6476 175.849 64.2569 175.849C64.6532 175.849 65.0112 175.794 65.3308 175.683C65.6547 175.568 65.9338 175.398 66.1681 175.172C66.4025 174.942 66.5836 174.656 66.7115 174.315L68.1689 174.724C68.0154 175.219 67.7576 175.653 67.3954 176.028C67.0332 176.399 66.5858 176.689 66.0531 176.898C65.5204 177.102 64.9217 177.205 64.2569 177.205ZM74.3244 177.205C73.5062 177.205 72.7839 176.998 72.1575 176.585C71.5311 176.167 71.041 175.579 70.6873 174.82C70.3336 174.058 70.1568 173.156 70.1568 172.116C70.1568 171.085 70.3336 170.19 70.6873 169.432C71.041 168.673 71.5332 168.087 72.1639 167.674C72.7946 167.261 73.5233 167.054 74.35 167.054C74.9892 167.054 75.4941 167.161 75.8649 167.374C76.2399 167.582 76.5254 167.821 76.7214 168.089C76.9217 168.354 77.0772 168.571 77.188 168.741H77.3159V163.909H78.8244V177H77.367V175.491H77.188C77.0772 175.67 76.9196 175.896 76.715 176.169C76.5105 176.437 76.2186 176.678 75.8393 176.891C75.46 177.1 74.9551 177.205 74.3244 177.205ZM74.5289 175.849C75.1341 175.849 75.6454 175.692 76.063 175.376C76.4806 175.057 76.7981 174.616 77.0154 174.053C77.2328 173.487 77.3414 172.832 77.3414 172.091C77.3414 171.358 77.2349 170.717 77.0218 170.167C76.8088 169.613 76.4934 169.183 76.0758 168.876C75.6582 168.565 75.1426 168.409 74.5289 168.409C73.8897 168.409 73.3571 168.573 72.9309 168.901C72.5091 169.225 72.1916 169.666 71.9785 170.224C71.7697 170.778 71.6653 171.401 71.6653 172.091C71.6653 172.79 71.7718 173.425 71.9849 173.996C72.2022 174.562 72.5218 175.014 72.9437 175.351C73.3699 175.683 73.8983 175.849 74.5289 175.849ZM81.7967 177V167.182H83.3052V177H81.7967ZM82.5637 165.545C82.2697 165.545 82.0162 165.445 81.8031 165.245C81.5943 165.045 81.4899 164.804 81.4899 164.523C81.4899 164.241 81.5943 164.001 81.8031 163.8C82.0162 163.6 82.2697 163.5 82.5637 163.5C82.8578 163.5 83.1092 163.6 83.318 163.8C83.5311 164.001 83.6376 164.241 83.6376 164.523C83.6376 164.804 83.5311 165.045 83.318 165.245C83.1092 165.445 82.8578 165.545 82.5637 165.545ZM90.0568 177.205C89.1364 177.205 88.3438 176.987 87.679 176.553C87.0142 176.118 86.5028 175.519 86.1449 174.756C85.7869 173.994 85.608 173.122 85.608 172.142C85.608 171.145 85.7912 170.265 86.1577 169.502C86.5284 168.735 87.044 168.136 87.7045 167.706C88.3693 167.271 89.1449 167.054 90.0312 167.054C90.7216 167.054 91.3438 167.182 91.8977 167.438C92.4517 167.693 92.9055 168.051 93.2592 168.511C93.6129 168.972 93.8324 169.509 93.9176 170.122H92.4091C92.294 169.675 92.0384 169.278 91.642 168.933C91.25 168.584 90.7216 168.409 90.0568 168.409C89.4688 168.409 88.9531 168.562 88.5099 168.869C88.071 169.172 87.728 169.6 87.4808 170.154C87.2379 170.704 87.1165 171.349 87.1165 172.091C87.1165 172.849 87.2358 173.51 87.4744 174.072C87.7173 174.635 88.0582 175.072 88.4972 175.383C88.9403 175.694 89.4602 175.849 90.0568 175.849C90.4489 175.849 90.8047 175.781 91.1243 175.645C91.4439 175.509 91.7145 175.312 91.9361 175.057C92.1577 174.801 92.3153 174.494 92.4091 174.136H93.9176C93.8324 174.716 93.6214 175.238 93.2848 175.702C92.9524 176.163 92.5114 176.529 91.9616 176.802C91.4162 177.07 90.7813 177.205 90.0568 177.205ZM99.8303 177.205C99.0121 177.205 98.2898 176.998 97.6634 176.585C97.0369 176.167 96.5469 175.579 96.1932 174.82C95.8395 174.058 95.6626 173.156 95.6626 172.116C95.6626 171.085 95.8395 170.19 96.1932 169.432C96.5469 168.673 97.0391 168.087 97.6697 167.674C98.3004 167.261 99.0291 167.054 99.8558 167.054C100.495 167.054 101 167.161 101.371 167.374C101.746 167.582 102.031 167.821 102.227 168.089C102.428 168.354 102.583 168.571 102.694 168.741H102.822V167.182H104.33V177H102.873V175.491H102.694C102.583 175.67 102.425 175.896 102.221 176.169C102.016 176.437 101.724 176.678 101.345 176.891C100.966 177.1 100.461 177.205 99.8303 177.205ZM100.035 175.849C100.64 175.849 101.151 175.692 101.569 175.376C101.987 175.057 102.304 174.616 102.521 174.053C102.739 173.487 102.847 172.832 102.847 172.091C102.847 171.358 102.741 170.717 102.528 170.167C102.315 169.613 101.999 169.183 101.582 168.876C101.164 168.565 100.648 168.409 100.035 168.409C99.3956 168.409 98.8629 168.573 98.4368 168.901C98.0149 169.225 97.6974 169.666 97.4844 170.224C97.2756 170.778 97.1712 171.401 97.1712 172.091C97.1712 172.79 97.2777 173.425 97.4908 173.996C97.7081 174.562 98.0277 175.014 98.4496 175.351C98.8757 175.683 99.4041 175.849 100.035 175.849ZM111.572 167.182V168.46H106.484V167.182H111.572ZM107.967 164.83H109.476V174.188C109.476 174.614 109.538 174.933 109.661 175.146C109.789 175.355 109.951 175.496 110.147 175.568C110.347 175.636 110.558 175.67 110.78 175.67C110.946 175.67 111.082 175.662 111.189 175.645C111.295 175.624 111.381 175.607 111.445 175.594L111.751 176.949C111.649 176.987 111.506 177.026 111.323 177.064C111.14 177.107 110.908 177.128 110.626 177.128C110.2 177.128 109.783 177.036 109.374 176.853C108.969 176.67 108.632 176.391 108.364 176.016C108.099 175.641 107.967 175.168 107.967 174.597V164.83ZM117.853 177.205C116.907 177.205 116.091 176.996 115.404 176.578C114.723 176.156 114.196 175.568 113.826 174.814C113.459 174.055 113.276 173.173 113.276 172.168C113.276 171.162 113.459 170.276 113.826 169.509C114.196 168.737 114.712 168.136 115.373 167.706C116.037 167.271 116.813 167.054 117.699 167.054C118.211 167.054 118.716 167.139 119.214 167.31C119.713 167.48 120.167 167.757 120.576 168.141C120.985 168.52 121.311 169.023 121.554 169.649C121.797 170.276 121.918 171.047 121.918 171.963V172.602H114.35V171.298H120.384C120.384 170.744 120.273 170.25 120.051 169.815C119.834 169.381 119.523 169.038 119.118 168.786C118.718 168.535 118.245 168.409 117.699 168.409C117.098 168.409 116.578 168.558 116.14 168.857C115.705 169.151 115.37 169.534 115.136 170.007C114.902 170.48 114.784 170.987 114.784 171.528V172.398C114.784 173.139 114.912 173.768 115.168 174.283C115.428 174.795 115.788 175.185 116.248 175.453C116.708 175.717 117.243 175.849 117.853 175.849C118.249 175.849 118.607 175.794 118.926 175.683C119.25 175.568 119.529 175.398 119.764 175.172C119.998 174.942 120.179 174.656 120.307 174.315L121.765 174.724C121.611 175.219 121.353 175.653 120.991 176.028C120.629 176.399 120.181 176.689 119.649 176.898C119.116 177.102 118.517 177.205 117.853 177.205ZM127.92 177.205C127.102 177.205 126.38 176.998 125.753 176.585C125.127 176.167 124.637 175.579 124.283 174.82C123.929 174.058 123.752 173.156 123.752 172.116C123.752 171.085 123.929 170.19 124.283 169.432C124.637 168.673 125.129 168.087 125.76 167.674C126.39 167.261 127.119 167.054 127.946 167.054C128.585 167.054 129.09 167.161 129.461 167.374C129.836 167.582 130.121 167.821 130.317 168.089C130.517 168.354 130.673 168.571 130.784 168.741H130.912V163.909H132.42V177H130.963V175.491H130.784C130.673 175.67 130.515 175.896 130.311 176.169C130.106 176.437 129.814 176.678 129.435 176.891C129.056 177.1 128.551 177.205 127.92 177.205ZM128.125 175.849C128.73 175.849 129.241 175.692 129.659 175.376C130.076 175.057 130.394 174.616 130.611 174.053C130.828 173.487 130.937 172.832 130.937 172.091C130.937 171.358 130.831 170.717 130.618 170.167C130.404 169.613 130.089 169.183 129.672 168.876C129.254 168.565 128.738 168.409 128.125 168.409C127.485 168.409 126.953 168.573 126.527 168.901C126.105 169.225 125.787 169.666 125.574 170.224C125.365 170.778 125.261 171.401 125.261 172.091C125.261 172.79 125.368 173.425 125.581 173.996C125.798 174.562 126.118 175.014 126.539 175.351C126.966 175.683 127.494 175.849 128.125 175.849ZM140.659 163.909H142.551L147 174.776H147.154L151.603 163.909H153.495V177H152.012V167.054H151.884L147.793 177H146.361L142.27 167.054H142.142V177H140.659V163.909ZM160.585 177.205C159.639 177.205 158.823 176.996 158.137 176.578C157.455 176.156 156.929 175.568 156.558 174.814C156.192 174.055 156.008 173.173 156.008 172.168C156.008 171.162 156.192 170.276 156.558 169.509C156.929 168.737 157.444 168.136 158.105 167.706C158.77 167.271 159.545 167.054 160.432 167.054C160.943 167.054 161.448 167.139 161.947 167.31C162.445 167.48 162.899 167.757 163.308 168.141C163.717 168.52 164.043 169.023 164.286 169.649C164.529 170.276 164.65 171.047 164.65 171.963V172.602H157.082V171.298H163.116C163.116 170.744 163.006 170.25 162.784 169.815C162.567 169.381 162.256 169.038 161.851 168.786C161.45 168.535 160.977 168.409 160.432 168.409C159.831 168.409 159.311 168.558 158.872 168.857C158.437 169.151 158.103 169.534 157.868 170.007C157.634 170.48 157.517 170.987 157.517 171.528V172.398C157.517 173.139 157.645 173.768 157.9 174.283C158.16 174.795 158.52 175.185 158.981 175.453C159.441 175.717 159.976 175.849 160.585 175.849C160.981 175.849 161.339 175.794 161.659 175.683C161.983 175.568 162.262 175.398 162.496 175.172C162.731 174.942 162.912 174.656 163.04 174.315L164.497 174.724C164.344 175.219 164.086 175.653 163.724 176.028C163.361 176.399 162.914 176.689 162.381 176.898C161.849 177.102 161.25 177.205 160.585 177.205ZM166.945 177V167.182H168.403V168.716H168.53C168.735 168.192 169.065 167.785 169.521 167.495C169.977 167.201 170.525 167.054 171.164 167.054C171.812 167.054 172.351 167.201 172.781 167.495C173.216 167.785 173.555 168.192 173.797 168.716H173.9C174.151 168.209 174.528 167.806 175.031 167.508C175.534 167.205 176.137 167.054 176.84 167.054C177.718 167.054 178.436 167.329 178.994 167.879C179.552 168.424 179.831 169.274 179.831 170.429V177H178.323V170.429C178.323 169.705 178.125 169.187 177.729 168.876C177.332 168.565 176.866 168.409 176.329 168.409C175.638 168.409 175.104 168.618 174.724 169.036C174.345 169.449 174.155 169.973 174.155 170.608V177H172.621V170.276C172.621 169.717 172.44 169.268 172.078 168.927C171.716 168.582 171.249 168.409 170.678 168.409C170.286 168.409 169.92 168.513 169.579 168.722C169.242 168.931 168.969 169.221 168.76 169.592C168.556 169.958 168.454 170.382 168.454 170.864V177H166.945ZM182.794 177V163.909H184.303V168.741H184.431C184.541 168.571 184.695 168.354 184.891 168.089C185.091 167.821 185.377 167.582 185.747 167.374C186.122 167.161 186.629 167.054 187.269 167.054C188.095 167.054 188.824 167.261 189.455 167.674C190.085 168.087 190.578 168.673 190.931 169.432C191.285 170.19 191.462 171.085 191.462 172.116C191.462 173.156 191.285 174.058 190.931 174.82C190.578 175.579 190.088 176.167 189.461 176.585C188.835 176.998 188.112 177.205 187.294 177.205C186.664 177.205 186.159 177.1 185.779 176.891C185.4 176.678 185.108 176.437 184.904 176.169C184.699 175.896 184.541 175.67 184.431 175.491H184.252V177H182.794ZM184.277 172.091C184.277 172.832 184.386 173.487 184.603 174.053C184.82 174.616 185.138 175.057 185.556 175.376C185.973 175.692 186.485 175.849 187.09 175.849C187.72 175.849 188.247 175.683 188.669 175.351C189.095 175.014 189.414 174.562 189.627 173.996C189.845 173.425 189.953 172.79 189.953 172.091C189.953 171.401 189.847 170.778 189.634 170.224C189.425 169.666 189.107 169.225 188.681 168.901C188.259 168.573 187.729 168.409 187.09 168.409C186.476 168.409 185.96 168.565 185.543 168.876C185.125 169.183 184.81 169.613 184.597 170.167C184.384 170.717 184.277 171.358 184.277 172.091ZM197.886 177.205C196.94 177.205 196.124 176.996 195.438 176.578C194.756 176.156 194.23 175.568 193.859 174.814C193.492 174.055 193.309 173.173 193.309 172.168C193.309 171.162 193.492 170.276 193.859 169.509C194.23 168.737 194.745 168.136 195.406 167.706C196.07 167.271 196.846 167.054 197.732 167.054C198.244 167.054 198.749 167.139 199.247 167.31C199.746 167.48 200.2 167.757 200.609 168.141C201.018 168.52 201.344 169.023 201.587 169.649C201.83 170.276 201.951 171.047 201.951 171.963V172.602H194.383V171.298H200.417C200.417 170.744 200.306 170.25 200.085 169.815C199.867 169.381 199.556 169.038 199.151 168.786C198.751 168.535 198.278 168.409 197.732 168.409C197.132 168.409 196.612 168.558 196.173 168.857C195.738 169.151 195.404 169.534 195.169 170.007C194.935 170.48 194.818 170.987 194.818 171.528V172.398C194.818 173.139 194.945 173.768 195.201 174.283C195.461 174.795 195.821 175.185 196.281 175.453C196.742 175.717 197.276 175.849 197.886 175.849C198.282 175.849 198.64 175.794 198.96 175.683C199.284 175.568 199.563 175.398 199.797 175.172C200.031 174.942 200.213 174.656 200.34 174.315L201.798 174.724C201.644 175.219 201.387 175.653 201.024 176.028C200.662 176.399 200.215 176.689 199.682 176.898C199.149 177.102 198.551 177.205 197.886 177.205ZM204.246 177V167.182H205.703V168.665H205.806C205.98 168.179 206.302 167.785 206.771 167.482C207.24 167.18 207.77 167.028 208.362 167.028C208.635 167.028 208.874 167.06 209.078 167.124C209.283 167.188 209.462 167.276 209.615 167.386L209.104 168.665C208.997 168.609 208.872 168.567 208.727 168.537C208.586 168.503 208.422 168.486 208.235 168.486C207.757 168.486 207.331 168.586 206.956 168.786C206.585 168.987 206.291 169.259 206.074 169.604C205.861 169.95 205.754 170.344 205.754 170.787V177H204.246ZM218.109 169.381L216.754 169.764C216.668 169.538 216.543 169.319 216.376 169.106C216.214 168.888 215.993 168.71 215.712 168.569C215.43 168.428 215.07 168.358 214.631 168.358C214.031 168.358 213.53 168.496 213.129 168.773C212.733 169.046 212.535 169.393 212.535 169.815C212.535 170.19 212.671 170.487 212.944 170.704C213.217 170.921 213.643 171.102 214.222 171.247L215.68 171.605C216.558 171.818 217.212 172.144 217.642 172.583C218.072 173.018 218.288 173.578 218.288 174.264C218.288 174.827 218.126 175.33 217.802 175.773C217.482 176.216 217.035 176.565 216.46 176.821C215.884 177.077 215.215 177.205 214.452 177.205C213.451 177.205 212.622 176.987 211.966 176.553C211.31 176.118 210.894 175.483 210.719 174.648L212.151 174.29C212.288 174.818 212.545 175.214 212.925 175.479C213.308 175.743 213.809 175.875 214.427 175.875C215.13 175.875 215.688 175.726 216.102 175.428C216.519 175.125 216.728 174.763 216.728 174.341C216.728 174 216.609 173.714 216.37 173.484C216.131 173.25 215.765 173.075 215.271 172.96L213.634 172.577C212.735 172.364 212.075 172.033 211.653 171.586C211.235 171.134 211.026 170.57 211.026 169.892C211.026 169.338 211.182 168.848 211.493 168.422C211.808 167.996 212.237 167.661 212.778 167.418C213.323 167.175 213.941 167.054 214.631 167.054C215.603 167.054 216.366 167.267 216.92 167.693C217.478 168.119 217.874 168.682 218.109 169.381Z" fill="#18191F"/>
<defs>
<filter id="filter0_dd_704_2578" x="0.0817871" y="0.475098" width="264.836" height="294.05" filterUnits="userSpaceOnUse" color-interpolation-filters="sRGB">
<feFlood flood-opacity="0" result="BackgroundImageFix"/>
<feColorMatrix in="SourceAlpha" type="matrix" values="0 0 0 0 0 0 0 0 0 0 0 0 0 0 0 0 0 0 127 0" result="hardAlpha"/>
<feOffset dy="10"/>
<feGaussianBlur stdDeviation="10"/>
<feColorMatrix type="matrix" values="0 0 0 0 0.160784 0 0 0 0 0.160784 0 0 0 0 0.164706 0 0 0 0.07 0"/>
<feBlend mode="normal" in2="BackgroundImageFix" result="effect1_dropShadow_704_2578"/>
<feColorMatrix in="SourceAlpha" type="matrix" values="0 0 0 0 0 0 0 0 0 0 0 0 0 0 0 0 0 0 127 0" result="hardAlpha"/>
<feOffset dy="10"/>
<feGaussianBlur stdDeviation="11"/>
<feColorMatrix type="matrix" values="0 0 0 0 0.160784 0 0 0 0 0.160784 0 0 0 0 0.164706 0 0 0 0.52 0"/>
<feBlend mode="normal" in2="effect1_dropShadow_704_2578" result="effect2_dropShadow_704_2578"/>
<feBlend mode="normal" in="SourceGraphic" in2="effect2_dropShadow_704_2578" result="shape"/>
</filter>
</defs>
</svg>
