<svg width="265" height="295" viewBox="0 0 265 295" fill="none" xmlns="http://www.w3.org/2000/svg">
<g filter="url(#filter0_d_704_2581)">
<path d="M124.5 14.6188C129.45 11.7607 135.55 11.7607 140.5 14.6188L234.918 69.1312C239.869 71.9893 242.918 77.2714 242.918 82.9876V192.012C242.918 197.729 239.869 203.011 234.918 205.869L140.5 260.381C135.55 263.239 129.45 263.239 124.5 260.381L30.0818 205.869C25.1313 203.011 22.0818 197.729 22.0818 192.012V82.9876C22.0818 77.2714 25.1313 71.9893 30.0818 69.1312L124.5 14.6188Z" fill="white"/>
</g>
<path d="M87.5192 139V132.932L100.252 121.784C101.207 120.92 102.019 120.131 102.69 119.415C103.36 118.687 103.871 117.96 104.224 117.233C104.576 116.494 104.752 115.693 104.752 114.83C104.752 113.864 104.542 113.04 104.121 112.358C103.701 111.665 103.121 111.131 102.383 110.756C101.644 110.381 100.798 110.193 99.843 110.193C98.8771 110.193 98.0305 110.392 97.3033 110.79C96.576 111.176 96.0078 111.739 95.5987 112.477C95.201 113.216 95.0021 114.114 95.0021 115.17H87.0078C87.0078 112.795 87.5419 110.744 88.6101 109.017C89.6783 107.29 91.1783 105.96 93.1101 105.028C95.0533 104.085 97.3089 103.614 99.8771 103.614C102.525 103.614 104.826 104.057 106.781 104.943C108.735 105.83 110.246 107.068 111.315 108.659C112.394 110.239 112.934 112.074 112.934 114.165C112.934 115.494 112.667 116.812 112.133 118.119C111.599 119.426 110.638 120.869 109.252 122.449C107.877 124.028 105.923 125.92 103.388 128.125L99.2124 131.977V132.199H113.36V139H87.5192ZM131.492 139.477C128.947 139.477 126.685 139.017 124.708 138.097C122.731 137.176 121.168 135.909 120.021 134.295C118.884 132.682 118.293 130.83 118.248 128.739H126.43C126.498 130.023 127.021 131.057 127.998 131.841C128.975 132.614 130.14 133 131.492 133C132.549 133 133.487 132.767 134.305 132.301C135.123 131.835 135.765 131.182 136.231 130.341C136.697 129.489 136.924 128.511 136.913 127.409C136.924 126.284 136.691 125.301 136.214 124.46C135.748 123.619 135.1 122.966 134.271 122.5C133.452 122.023 132.509 121.784 131.441 121.784C130.43 121.773 129.469 121.994 128.56 122.449C127.663 122.903 126.981 123.523 126.515 124.307L119.066 122.909L120.583 104.091H142.981V110.892H127.521L126.719 119.125H126.924C127.504 118.159 128.435 117.364 129.719 116.739C131.015 116.102 132.487 115.784 134.134 115.784C136.225 115.784 138.089 116.273 139.725 117.25C141.373 118.216 142.668 119.557 143.612 121.273C144.566 122.989 145.043 124.955 145.043 127.17C145.043 129.568 144.475 131.693 143.339 133.545C142.214 135.398 140.634 136.852 138.6 137.909C136.577 138.955 134.208 139.477 131.492 139.477Z" fill="#18191F"/>
<path d="M160.141 137.261V112.58H167.011V137.261H160.141ZM151.227 128.364V121.494H175.908V128.364H151.227Z" fill="#FFAD00"/>
<path d="M81.5714 177H79.9094L84.7163 163.909H86.3526L91.1594 177H89.4975L85.5856 165.98H85.4833L81.5714 177ZM82.185 171.886H88.8839V173.293H82.185V171.886ZM93.9879 177L90.9964 167.182H92.5817L94.7038 174.699H94.8061L96.9027 167.182H98.5135L100.585 174.673H100.687L102.809 167.182H104.394L101.403 177H99.9197L97.772 169.457H97.6186L95.4709 177H93.9879ZM109.762 177.205C108.944 177.205 108.221 176.998 107.595 176.585C106.969 176.167 106.479 175.579 106.125 174.82C105.771 174.058 105.594 173.156 105.594 172.116C105.594 171.085 105.771 170.19 106.125 169.432C106.479 168.673 106.971 168.087 107.601 167.674C108.232 167.261 108.961 167.054 109.787 167.054C110.427 167.054 110.932 167.161 111.302 167.374C111.677 167.582 111.963 167.821 112.159 168.089C112.359 168.354 112.515 168.571 112.626 168.741H112.753V167.182H114.262V177H112.805V175.491H112.626C112.515 175.67 112.357 175.896 112.153 176.169C111.948 176.437 111.656 176.678 111.277 176.891C110.898 177.1 110.393 177.205 109.762 177.205ZM109.966 175.849C110.572 175.849 111.083 175.692 111.501 175.376C111.918 175.057 112.236 174.616 112.453 174.053C112.67 173.487 112.779 172.832 112.779 172.091C112.779 171.358 112.672 170.717 112.459 170.167C112.246 169.613 111.931 169.183 111.513 168.876C111.096 168.565 110.58 168.409 109.966 168.409C109.327 168.409 108.795 168.573 108.368 168.901C107.947 169.225 107.629 169.666 107.416 170.224C107.207 170.778 107.103 171.401 107.103 172.091C107.103 172.79 107.209 173.425 107.422 173.996C107.64 174.562 107.959 175.014 108.381 175.351C108.807 175.683 109.336 175.849 109.966 175.849ZM117.234 177V167.182H118.692V168.665H118.794C118.969 168.179 119.29 167.785 119.759 167.482C120.228 167.18 120.758 167.028 121.351 167.028C121.623 167.028 121.862 167.06 122.067 167.124C122.271 167.188 122.45 167.276 122.604 167.386L122.092 168.665C121.986 168.609 121.86 168.567 121.715 168.537C121.574 168.503 121.41 168.486 121.223 168.486C120.746 168.486 120.319 168.586 119.944 168.786C119.574 168.987 119.28 169.259 119.062 169.604C118.849 169.95 118.743 170.344 118.743 170.787V177H117.234ZM127.551 177.205C126.733 177.205 126.01 176.998 125.384 176.585C124.758 176.167 124.268 175.579 123.914 174.82C123.56 174.058 123.383 173.156 123.383 172.116C123.383 171.085 123.56 170.19 123.914 169.432C124.268 168.673 124.76 168.087 125.39 167.674C126.021 167.261 126.75 167.054 127.577 167.054C128.216 167.054 128.721 167.161 129.091 167.374C129.466 167.582 129.752 167.821 129.948 168.089C130.148 168.354 130.304 168.571 130.415 168.741H130.542V163.909H132.051V177H130.594V175.491H130.415C130.304 175.67 130.146 175.896 129.942 176.169C129.737 176.437 129.445 176.678 129.066 176.891C128.687 177.1 128.182 177.205 127.551 177.205ZM127.756 175.849C128.361 175.849 128.872 175.692 129.29 175.376C129.707 175.057 130.025 174.616 130.242 174.053C130.459 173.487 130.568 172.832 130.568 172.091C130.568 171.358 130.461 170.717 130.248 170.167C130.035 169.613 129.72 169.183 129.302 168.876C128.885 168.565 128.369 168.409 127.756 168.409C127.116 168.409 126.584 168.573 126.157 168.901C125.736 169.225 125.418 169.666 125.205 170.224C124.996 170.778 124.892 171.401 124.892 172.091C124.892 172.79 124.998 173.425 125.211 173.996C125.429 174.562 125.748 175.014 126.17 175.351C126.596 175.683 127.125 175.849 127.756 175.849ZM141.978 169.381L140.623 169.764C140.537 169.538 140.412 169.319 140.246 169.106C140.084 168.888 139.862 168.71 139.581 168.569C139.3 168.428 138.939 168.358 138.501 168.358C137.9 168.358 137.399 168.496 136.998 168.773C136.602 169.046 136.404 169.393 136.404 169.815C136.404 170.19 136.54 170.487 136.813 170.704C137.086 170.921 137.512 171.102 138.091 171.247L139.549 171.605C140.427 171.818 141.081 172.144 141.511 172.583C141.942 173.018 142.157 173.578 142.157 174.264C142.157 174.827 141.995 175.33 141.671 175.773C141.351 176.216 140.904 176.565 140.329 176.821C139.753 177.077 139.084 177.205 138.322 177.205C137.32 177.205 136.491 176.987 135.835 176.553C135.179 176.118 134.763 175.483 134.589 174.648L136.02 174.29C136.157 174.818 136.415 175.214 136.794 175.479C137.177 175.743 137.678 175.875 138.296 175.875C138.999 175.875 139.557 175.726 139.971 175.428C140.388 175.125 140.597 174.763 140.597 174.341C140.597 174 140.478 173.714 140.239 173.484C140.001 173.25 139.634 173.075 139.14 172.96L137.503 172.577C136.604 172.364 135.944 172.033 135.522 171.586C135.104 171.134 134.895 170.57 134.895 169.892C134.895 169.338 135.051 168.848 135.362 168.422C135.677 167.996 136.106 167.661 136.647 167.418C137.192 167.175 137.81 167.054 138.501 167.054C139.472 167.054 140.235 167.267 140.789 167.693C141.347 168.119 141.743 168.682 141.978 169.381ZM152.072 177L148.493 163.909H150.104L152.839 174.571H152.967L155.754 163.909H157.544L160.331 174.571H160.459L163.195 163.909H164.805L161.226 177H159.589L156.7 166.568H156.598L153.709 177H152.072ZM169.651 177.205C168.764 177.205 167.987 176.994 167.317 176.572C166.653 176.15 166.133 175.56 165.758 174.801C165.387 174.043 165.202 173.156 165.202 172.142C165.202 171.119 165.387 170.227 165.758 169.464C166.133 168.701 166.653 168.109 167.317 167.687C167.987 167.265 168.764 167.054 169.651 167.054C170.537 167.054 171.313 167.265 171.977 167.687C172.646 168.109 173.166 168.701 173.537 169.464C173.912 170.227 174.099 171.119 174.099 172.142C174.099 173.156 173.912 174.043 173.537 174.801C173.166 175.56 172.646 176.15 171.977 176.572C171.313 176.994 170.537 177.205 169.651 177.205ZM169.651 175.849C170.324 175.849 170.878 175.677 171.312 175.332C171.747 174.987 172.069 174.533 172.278 173.97C172.487 173.408 172.591 172.798 172.591 172.142C172.591 171.486 172.487 170.874 172.278 170.308C172.069 169.741 171.747 169.283 171.312 168.933C170.878 168.584 170.324 168.409 169.651 168.409C168.977 168.409 168.423 168.584 167.989 168.933C167.554 169.283 167.232 169.741 167.023 170.308C166.815 170.874 166.71 171.486 166.71 172.142C166.71 172.798 166.815 173.408 167.023 173.97C167.232 174.533 167.554 174.987 167.989 175.332C168.423 175.677 168.977 175.849 169.651 175.849ZM177.911 171.094V177H176.402V167.182H177.86V168.716H177.987C178.218 168.217 178.567 167.817 179.036 167.514C179.504 167.207 180.11 167.054 180.851 167.054C181.516 167.054 182.097 167.19 182.596 167.463C183.095 167.732 183.482 168.141 183.759 168.69C184.036 169.236 184.175 169.926 184.175 170.761V177H182.666V170.864C182.666 170.092 182.466 169.491 182.066 169.061C181.665 168.626 181.115 168.409 180.416 168.409C179.935 168.409 179.504 168.513 179.125 168.722C178.75 168.931 178.454 169.236 178.237 169.636C178.019 170.037 177.911 170.523 177.911 171.094Z" fill="#18191F"/>
<defs>
<filter id="filter0_d_704_2581" x="0.0817871" y="0.475098" width="264.836" height="294.05" filterUnits="userSpaceOnUse" color-interpolation-filters="sRGB">
<feFlood flood-opacity="0" result="BackgroundImageFix"/>
<feColorMatrix in="SourceAlpha" type="matrix" values="0 0 0 0 0 0 0 0 0 0 0 0 0 0 0 0 0 0 127 0" result="hardAlpha"/>
<feOffset dy="10"/>
<feGaussianBlur stdDeviation="11"/>
<feColorMatrix type="matrix" values="0 0 0 0 0.160784 0 0 0 0 0.160784 0 0 0 0 0.164706 0 0 0 0.52 0"/>
<feBlend mode="normal" in2="BackgroundImageFix" result="effect1_dropShadow_704_2581"/>
<feBlend mode="normal" in="SourceGraphic" in2="effect1_dropShadow_704_2581" result="shape"/>
</filter>
</defs>
</svg>
