<svg width="265" height="295" viewBox="0 0 265 295" fill="none" xmlns="http://www.w3.org/2000/svg">
<g filter="url(#filter0_dd_704_2575)">
<path d="M124.5 14.6188C129.45 11.7607 135.55 11.7607 140.5 14.6188L234.918 69.1312C239.869 71.9893 242.918 77.2714 242.918 82.9876V192.012C242.918 197.729 239.869 203.011 234.918 205.869L140.5 260.381C135.55 263.239 129.45 263.239 124.5 260.381L30.0818 205.869C25.1313 203.011 22.0818 197.729 22.0818 192.012V82.9876C22.0818 77.2714 25.1313 71.9893 30.0818 69.1312L124.5 14.6188Z" fill="white"/>
</g>
<path d="M82.625 139.477C80.0795 139.477 77.8182 139.017 75.8409 138.097C73.8636 137.176 72.3011 135.909 71.1534 134.295C70.017 132.682 69.4261 130.83 69.3807 128.739H77.5625C77.6307 130.023 78.1534 131.057 79.1307 131.841C80.108 132.614 81.2727 133 82.625 133C83.6818 133 84.6193 132.767 85.4375 132.301C86.2557 131.835 86.8977 131.182 87.3636 130.341C87.8295 129.489 88.0568 128.511 88.0455 127.409C88.0568 126.284 87.8239 125.301 87.3466 124.46C86.8807 123.619 86.233 122.966 85.4034 122.5C84.5852 122.023 83.642 121.784 82.5739 121.784C81.5625 121.773 80.6023 121.994 79.6932 122.449C78.7955 122.903 78.1136 123.523 77.6477 124.307L70.1989 122.909L71.7159 104.091H94.1136V110.892H78.6534L77.8523 119.125H78.0568C78.6364 118.159 79.5682 117.364 80.8523 116.739C82.1477 116.102 83.6193 115.784 85.267 115.784C87.358 115.784 89.2216 116.273 90.858 117.25C92.5057 118.216 93.8011 119.557 94.7443 121.273C95.6989 122.989 96.1761 124.955 96.1761 127.17C96.1761 129.568 95.608 131.693 94.4716 133.545C93.3466 135.398 91.767 136.852 89.733 137.909C87.7102 138.955 85.3409 139.477 82.625 139.477ZM100.382 133.205V126.625L113.098 104.091H121.178L108.751 126.284V126.557H129.479V133.205H100.382ZM117.24 139V131.261L117.513 128.312V117.182H125.132V139H117.24ZM148.339 139.852C145.294 139.852 142.669 139.131 140.464 137.688C138.26 136.233 136.561 134.148 135.368 131.432C134.175 128.705 133.584 125.426 133.595 121.597C133.607 117.767 134.203 114.517 135.385 111.847C136.578 109.165 138.271 107.125 140.464 105.727C142.669 104.318 145.294 103.614 148.339 103.614C151.385 103.614 154.01 104.318 156.214 105.727C158.43 107.125 160.135 109.165 161.328 111.847C162.521 114.528 163.112 117.778 163.101 121.597C163.101 125.437 162.504 128.722 161.311 131.449C160.118 134.176 158.419 136.261 156.214 137.705C154.021 139.136 151.396 139.852 148.339 139.852ZM148.339 132.949C150.158 132.949 151.629 132.023 152.754 130.17C153.879 128.307 154.436 125.449 154.425 121.597C154.425 119.074 154.169 116.994 153.658 115.358C153.146 113.71 152.436 112.483 151.527 111.676C150.618 110.869 149.555 110.466 148.339 110.466C146.533 110.466 145.072 111.381 143.959 113.21C142.845 115.028 142.283 117.824 142.271 121.597C142.26 124.153 142.504 126.273 143.004 127.955C143.516 129.636 144.232 130.892 145.152 131.722C146.072 132.54 147.135 132.949 148.339 132.949Z" fill="#18191F"/>
<path d="M178.399 137.261V112.58H185.268V137.261H178.399ZM169.484 128.364V121.494H194.166V128.364H169.484Z" fill="#FFAD00"/>
<path d="M50.0442 177V163.909H54.4675C55.4945 163.909 56.334 164.094 56.986 164.465C57.6422 164.832 58.128 165.328 58.4434 165.955C58.7587 166.581 58.9164 167.28 58.9164 168.051C58.9164 168.822 58.7587 169.523 58.4434 170.154C58.1323 170.785 57.6507 171.288 56.9988 171.663C56.3468 172.033 55.5115 172.219 54.4931 172.219H51.3226V170.812H54.4419C55.1451 170.812 55.7097 170.691 56.1358 170.448C56.562 170.205 56.8709 169.877 57.0627 169.464C57.2587 169.046 57.3567 168.575 57.3567 168.051C57.3567 167.527 57.2587 167.058 57.0627 166.645C56.8709 166.232 56.5598 165.908 56.1294 165.673C55.699 165.435 55.128 165.315 54.4164 165.315H51.6294V177H50.0442ZM61.2654 177V167.182H62.7228V168.665H62.8251C62.9998 168.179 63.3216 167.785 63.7903 167.482C64.2591 167.18 64.7896 167.028 65.3819 167.028C65.6547 167.028 65.8933 167.06 66.0978 167.124C66.3024 167.188 66.4814 167.276 66.6348 167.386L66.1234 168.665C66.0169 168.609 65.8912 168.567 65.7463 168.537C65.6056 168.503 65.4416 168.486 65.2541 168.486C64.7768 168.486 64.3507 168.586 63.9757 168.786C63.6049 168.987 63.3109 169.259 63.0936 169.604C62.8805 169.95 62.774 170.344 62.774 170.787V177H61.2654ZM71.8635 177.205C70.9771 177.205 70.1994 176.994 69.5304 176.572C68.8656 176.15 68.3457 175.56 67.9707 174.801C67.6 174.043 67.4146 173.156 67.4146 172.142C67.4146 171.119 67.6 170.227 67.9707 169.464C68.3457 168.701 68.8656 168.109 69.5304 167.687C70.1994 167.265 70.9771 167.054 71.8635 167.054C72.7498 167.054 73.5254 167.265 74.1902 167.687C74.8592 168.109 75.3791 168.701 75.7498 169.464C76.1248 170.227 76.3123 171.119 76.3123 172.142C76.3123 173.156 76.1248 174.043 75.7498 174.801C75.3791 175.56 74.8592 176.15 74.1902 176.572C73.5254 176.994 72.7498 177.205 71.8635 177.205ZM71.8635 175.849C72.5368 175.849 73.0907 175.677 73.5254 175.332C73.96 174.987 74.2818 174.533 74.4906 173.97C74.6994 173.408 74.8038 172.798 74.8038 172.142C74.8038 171.486 74.6994 170.874 74.4906 170.308C74.2818 169.741 73.96 169.283 73.5254 168.933C73.0907 168.584 72.5368 168.409 71.8635 168.409C71.1902 168.409 70.6362 168.584 70.2015 168.933C69.7669 169.283 69.4451 169.741 69.2363 170.308C69.0275 170.874 68.9231 171.486 68.9231 172.142C68.9231 172.798 69.0275 173.408 69.2363 173.97C69.4451 174.533 69.7669 174.987 70.2015 175.332C70.6362 175.677 71.1902 175.849 71.8635 175.849ZM78.6151 167.182H80.1236V177.716C80.1236 178.321 80.0192 178.845 79.8104 179.288C79.6058 179.732 79.2947 180.075 78.8771 180.317C78.4638 180.56 77.9418 180.682 77.3111 180.682C77.2599 180.682 77.2088 180.682 77.1577 180.682C77.1065 180.682 77.0554 180.682 77.0043 180.682V179.276C77.0554 179.276 77.1023 179.276 77.1449 179.276C77.1875 179.276 77.2344 179.276 77.2855 179.276C77.7457 179.276 78.0824 179.139 78.2955 178.866C78.5085 178.598 78.6151 178.214 78.6151 177.716V167.182ZM79.3565 165.545C79.0625 165.545 78.8089 165.445 78.5959 165.245C78.3871 165.045 78.2827 164.804 78.2827 164.523C78.2827 164.241 78.3871 164.001 78.5959 163.8C78.8089 163.6 79.0625 163.5 79.3565 163.5C79.6506 163.5 79.902 163.6 80.1108 163.8C80.3239 164.001 80.4304 164.241 80.4304 164.523C80.4304 164.804 80.3239 165.045 80.1108 165.245C79.902 165.445 79.6506 165.545 79.3565 165.545ZM87.003 177.205C86.057 177.205 85.2409 176.996 84.5549 176.578C83.873 176.156 83.3468 175.568 82.976 174.814C82.6096 174.055 82.4263 173.173 82.4263 172.168C82.4263 171.162 82.6096 170.276 82.976 169.509C83.3468 168.737 83.8624 168.136 84.5229 167.706C85.1877 167.271 85.9632 167.054 86.8496 167.054C87.361 167.054 87.8659 167.139 88.3645 167.31C88.8631 167.48 89.3169 167.757 89.726 168.141C90.1351 168.52 90.4611 169.023 90.704 169.649C90.9469 170.276 91.0684 171.047 91.0684 171.963V172.602H83.5002V171.298H89.5343C89.5343 170.744 89.4235 170.25 89.2019 169.815C88.9846 169.381 88.6735 169.038 88.2686 168.786C87.8681 168.535 87.3951 168.409 86.8496 168.409C86.2488 168.409 85.7289 168.558 85.29 168.857C84.8553 169.151 84.5208 169.534 84.2864 170.007C84.052 170.48 83.9348 170.987 83.9348 171.528V172.398C83.9348 173.139 84.0627 173.768 84.3184 174.283C84.5783 174.795 84.9384 175.185 85.3986 175.453C85.8588 175.717 86.3936 175.849 87.003 175.849C87.3993 175.849 87.7573 175.794 88.0769 175.683C88.4007 175.568 88.6799 175.398 88.9142 175.172C89.1486 174.942 89.3297 174.656 89.4576 174.315L90.915 174.724C90.7615 175.219 90.5037 175.653 90.1415 176.028C89.7793 176.399 89.3319 176.689 88.7992 176.898C88.2665 177.102 87.6678 177.205 87.003 177.205ZM97.3517 177.205C96.4313 177.205 95.6387 176.987 94.9739 176.553C94.3091 176.118 93.7978 175.519 93.4398 174.756C93.0819 173.994 92.9029 173.122 92.9029 172.142C92.9029 171.145 93.0861 170.265 93.4526 169.502C93.8233 168.735 94.339 168.136 94.9995 167.706C95.6642 167.271 96.4398 167.054 97.3262 167.054C98.0165 167.054 98.6387 167.182 99.1926 167.438C99.7466 167.693 100.2 168.051 100.554 168.511C100.908 168.972 101.127 169.509 101.213 170.122H99.704C99.589 169.675 99.3333 169.278 98.937 168.933C98.5449 168.584 98.0165 168.409 97.3517 168.409C96.7637 168.409 96.248 168.562 95.8049 168.869C95.3659 169.172 95.0229 169.6 94.7757 170.154C94.5328 170.704 94.4114 171.349 94.4114 172.091C94.4114 172.849 94.5307 173.51 94.7694 174.072C95.0123 174.635 95.3532 175.072 95.7921 175.383C96.2353 175.694 96.7551 175.849 97.3517 175.849C97.7438 175.849 98.0996 175.781 98.4192 175.645C98.7388 175.509 99.0094 175.312 99.231 175.057C99.4526 174.801 99.6103 174.494 99.704 174.136H101.213C101.127 174.716 100.916 175.238 100.58 175.702C100.247 176.163 99.8063 176.529 99.2566 176.802C98.7111 177.07 98.0762 177.205 97.3517 177.205ZM107.688 167.182V168.46H102.6V167.182H107.688ZM104.083 164.83H105.591V174.188C105.591 174.614 105.653 174.933 105.776 175.146C105.904 175.355 106.066 175.496 106.262 175.568C106.463 175.636 106.673 175.67 106.895 175.67C107.061 175.67 107.198 175.662 107.304 175.645C107.411 175.624 107.496 175.607 107.56 175.594L107.867 176.949C107.764 176.987 107.622 177.026 107.438 177.064C107.255 177.107 107.023 177.128 106.742 177.128C106.316 177.128 105.898 177.036 105.489 176.853C105.084 176.67 104.747 176.391 104.479 176.016C104.215 175.641 104.083 175.168 104.083 174.597V164.83ZM116.736 169.381L115.381 169.764C115.295 169.538 115.17 169.319 115.003 169.106C114.841 168.888 114.62 168.71 114.339 168.569C114.057 168.428 113.697 168.358 113.258 168.358C112.657 168.358 112.157 168.496 111.756 168.773C111.36 169.046 111.162 169.393 111.162 169.815C111.162 170.19 111.298 170.487 111.571 170.704C111.844 170.921 112.27 171.102 112.849 171.247L114.307 171.605C115.184 171.818 115.839 172.144 116.269 172.583C116.699 173.018 116.915 173.578 116.915 174.264C116.915 174.827 116.753 175.33 116.429 175.773C116.109 176.216 115.662 176.565 115.086 176.821C114.511 177.077 113.842 177.205 113.079 177.205C112.078 177.205 111.249 176.987 110.593 176.553C109.937 176.118 109.521 175.483 109.346 174.648L110.778 174.29C110.915 174.818 111.172 175.214 111.552 175.479C111.935 175.743 112.436 175.875 113.054 175.875C113.757 175.875 114.315 175.726 114.729 175.428C115.146 175.125 115.355 174.763 115.355 174.341C115.355 174 115.236 173.714 114.997 173.484C114.758 173.25 114.392 173.075 113.898 172.96L112.261 172.577C111.362 172.364 110.702 172.033 110.28 171.586C109.862 171.134 109.653 170.57 109.653 169.892C109.653 169.338 109.809 168.848 110.12 168.422C110.435 167.996 110.863 167.661 111.405 167.418C111.95 167.175 112.568 167.054 113.258 167.054C114.23 167.054 114.993 167.267 115.547 167.693C116.105 168.119 116.501 168.682 116.736 169.381ZM134.987 168H133.401C133.308 167.544 133.143 167.143 132.909 166.798C132.679 166.453 132.398 166.163 132.065 165.929C131.737 165.69 131.373 165.511 130.972 165.392C130.572 165.273 130.154 165.213 129.719 165.213C128.927 165.213 128.209 165.413 127.565 165.814C126.926 166.214 126.417 166.805 126.038 167.585C125.663 168.364 125.475 169.321 125.475 170.455C125.475 171.588 125.663 172.545 126.038 173.325C126.417 174.104 126.926 174.695 127.565 175.095C128.209 175.496 128.927 175.696 129.719 175.696C130.154 175.696 130.572 175.636 130.972 175.517C131.373 175.398 131.737 175.221 132.065 174.987C132.398 174.748 132.679 174.456 132.909 174.111C133.143 173.761 133.308 173.361 133.401 172.909H134.987C134.867 173.578 134.65 174.177 134.335 174.705C134.019 175.234 133.627 175.683 133.158 176.054C132.69 176.42 132.163 176.7 131.58 176.891C131 177.083 130.38 177.179 129.719 177.179C128.603 177.179 127.61 176.906 126.741 176.361C125.871 175.815 125.188 175.04 124.689 174.034C124.19 173.028 123.941 171.835 123.941 170.455C123.941 169.074 124.19 167.881 124.689 166.875C125.188 165.869 125.871 165.094 126.741 164.548C127.61 164.003 128.603 163.73 129.719 163.73C130.38 163.73 131 163.826 131.58 164.018C132.163 164.21 132.69 164.491 133.158 164.862C133.627 165.228 134.019 165.675 134.335 166.204C134.65 166.728 134.867 167.327 134.987 168ZM141.332 177.205C140.446 177.205 139.668 176.994 138.999 176.572C138.334 176.15 137.814 175.56 137.439 174.801C137.069 174.043 136.883 173.156 136.883 172.142C136.883 171.119 137.069 170.227 137.439 169.464C137.814 168.701 138.334 168.109 138.999 167.687C139.668 167.265 140.446 167.054 141.332 167.054C142.219 167.054 142.994 167.265 143.659 167.687C144.328 168.109 144.848 168.701 145.219 169.464C145.594 170.227 145.781 171.119 145.781 172.142C145.781 173.156 145.594 174.043 145.219 174.801C144.848 175.56 144.328 176.15 143.659 176.572C142.994 176.994 142.219 177.205 141.332 177.205ZM141.332 175.849C142.006 175.849 142.559 175.677 142.994 175.332C143.429 174.987 143.751 174.533 143.959 173.97C144.168 173.408 144.273 172.798 144.273 172.142C144.273 171.486 144.168 170.874 143.959 170.308C143.751 169.741 143.429 169.283 142.994 168.933C142.559 168.584 142.006 168.409 141.332 168.409C140.659 168.409 140.105 168.584 139.67 168.933C139.236 169.283 138.914 169.741 138.705 170.308C138.496 170.874 138.392 171.486 138.392 172.142C138.392 172.798 138.496 173.408 138.705 173.97C138.914 174.533 139.236 174.987 139.67 175.332C140.105 175.677 140.659 175.849 141.332 175.849ZM148.084 177V167.182H149.541V168.716H149.669C149.874 168.192 150.204 167.785 150.66 167.495C151.116 167.201 151.663 167.054 152.303 167.054C152.95 167.054 153.489 167.201 153.92 167.495C154.354 167.785 154.693 168.192 154.936 168.716H155.038C155.29 168.209 155.667 167.806 156.17 167.508C156.673 167.205 157.276 167.054 157.979 167.054C158.857 167.054 159.575 167.329 160.133 167.879C160.691 168.424 160.97 169.274 160.97 170.429V177H159.462V170.429C159.462 169.705 159.263 169.187 158.867 168.876C158.471 168.565 158.004 168.409 157.467 168.409C156.777 168.409 156.242 168.618 155.863 169.036C155.484 169.449 155.294 169.973 155.294 170.608V177H153.76V170.276C153.76 169.717 153.579 169.268 153.217 168.927C152.854 168.582 152.388 168.409 151.817 168.409C151.425 168.409 151.058 168.513 150.717 168.722C150.381 168.931 150.108 169.221 149.899 169.592C149.695 169.958 149.592 170.382 149.592 170.864V177H148.084ZM163.728 180.682V167.182H165.186V168.741H165.365C165.475 168.571 165.629 168.354 165.825 168.089C166.025 167.821 166.311 167.582 166.681 167.374C167.056 167.161 167.564 167.054 168.203 167.054C169.029 167.054 169.758 167.261 170.389 167.674C171.02 168.087 171.512 168.673 171.865 169.432C172.219 170.19 172.396 171.085 172.396 172.116C172.396 173.156 172.219 174.058 171.865 174.82C171.512 175.579 171.022 176.167 170.395 176.585C169.769 176.998 169.047 177.205 168.228 177.205C167.598 177.205 167.093 177.1 166.713 176.891C166.334 176.678 166.042 176.437 165.838 176.169C165.633 175.896 165.475 175.67 165.365 175.491H165.237V180.682H163.728ZM165.211 172.091C165.211 172.832 165.32 173.487 165.537 174.053C165.755 174.616 166.072 175.057 166.49 175.376C166.907 175.692 167.419 175.849 168.024 175.849C168.654 175.849 169.181 175.683 169.603 175.351C170.029 175.014 170.348 174.562 170.561 173.996C170.779 173.425 170.887 172.79 170.887 172.091C170.887 171.401 170.781 170.778 170.568 170.224C170.359 169.666 170.042 169.225 169.615 168.901C169.194 168.573 168.663 168.409 168.024 168.409C167.41 168.409 166.895 168.565 166.477 168.876C166.059 169.183 165.744 169.613 165.531 170.167C165.318 170.717 165.211 171.358 165.211 172.091ZM174.697 163.909H176.206V174.443C176.206 174.92 176.259 175.255 176.365 175.447C176.472 175.638 176.691 175.73 177.024 175.722C177.203 175.713 177.335 175.7 177.42 175.683C177.51 175.662 177.591 175.641 177.663 175.619L177.97 176.923C177.838 176.962 177.672 176.996 177.471 177.026C177.271 177.06 177.062 177.077 176.845 177.077C176.129 177.077 175.592 176.881 175.234 176.489C174.876 176.097 174.697 175.551 174.697 174.852V163.909ZM183.472 177.205C182.526 177.205 181.71 176.996 181.024 176.578C180.342 176.156 179.816 175.568 179.445 174.814C179.078 174.055 178.895 173.173 178.895 172.168C178.895 171.162 179.078 170.276 179.445 169.509C179.816 168.737 180.331 168.136 180.992 167.706C181.656 167.271 182.432 167.054 183.318 167.054C183.83 167.054 184.335 167.139 184.833 167.31C185.332 167.48 185.786 167.757 186.195 168.141C186.604 168.52 186.93 169.023 187.173 169.649C187.416 170.276 187.537 171.047 187.537 171.963V172.602H179.969V171.298H186.003C186.003 170.744 185.892 170.25 185.671 169.815C185.453 169.381 185.142 169.038 184.737 168.786C184.337 168.535 183.864 168.409 183.318 168.409C182.718 168.409 182.198 168.558 181.759 168.857C181.324 169.151 180.99 169.534 180.755 170.007C180.521 170.48 180.404 170.987 180.404 171.528V172.398C180.404 173.139 180.531 173.768 180.787 174.283C181.047 174.795 181.407 175.185 181.867 175.453C182.328 175.717 182.862 175.849 183.472 175.849C183.868 175.849 184.226 175.794 184.546 175.683C184.869 175.568 185.149 175.398 185.383 175.172C185.617 174.942 185.798 174.656 185.926 174.315L187.384 174.724C187.23 175.219 186.972 175.653 186.61 176.028C186.248 176.399 185.801 176.689 185.268 176.898C184.735 177.102 184.137 177.205 183.472 177.205ZM194.102 167.182V168.46H189.014V167.182H194.102ZM190.497 164.83H192.005V174.188C192.005 174.614 192.067 174.933 192.191 175.146C192.318 175.355 192.48 175.496 192.676 175.568C192.877 175.636 193.088 175.67 193.309 175.67C193.475 175.67 193.612 175.662 193.718 175.645C193.825 175.624 193.91 175.607 193.974 175.594L194.281 176.949C194.178 176.987 194.036 177.026 193.852 177.064C193.669 177.107 193.437 177.128 193.156 177.128C192.73 177.128 192.312 177.036 191.903 176.853C191.498 176.67 191.161 176.391 190.893 176.016C190.629 175.641 190.497 175.168 190.497 174.597V164.83ZM200.382 177.205C199.436 177.205 198.62 176.996 197.934 176.578C197.252 176.156 196.726 175.568 196.355 174.814C195.988 174.055 195.805 173.173 195.805 172.168C195.805 171.162 195.988 170.276 196.355 169.509C196.726 168.737 197.241 168.136 197.902 167.706C198.567 167.271 199.342 167.054 200.229 167.054C200.74 167.054 201.245 167.139 201.743 167.31C202.242 167.48 202.696 167.757 203.105 168.141C203.514 168.52 203.84 169.023 204.083 169.649C204.326 170.276 204.447 171.047 204.447 171.963V172.602H196.879V171.298H202.913C202.913 170.744 202.802 170.25 202.581 169.815C202.363 169.381 202.052 169.038 201.648 168.786C201.247 168.535 200.774 168.409 200.229 168.409C199.628 168.409 199.108 168.558 198.669 168.857C198.234 169.151 197.9 169.534 197.665 170.007C197.431 170.48 197.314 170.987 197.314 171.528V172.398C197.314 173.139 197.442 173.768 197.697 174.283C197.957 174.795 198.317 175.185 198.778 175.453C199.238 175.717 199.773 175.849 200.382 175.849C200.778 175.849 201.136 175.794 201.456 175.683C201.78 175.568 202.059 175.398 202.293 175.172C202.528 174.942 202.709 174.656 202.836 174.315L204.294 174.724C204.14 175.219 203.883 175.653 203.52 176.028C203.158 176.399 202.711 176.689 202.178 176.898C201.645 177.102 201.047 177.205 200.382 177.205ZM210.449 177.205C209.631 177.205 208.909 176.998 208.282 176.585C207.656 176.167 207.166 175.579 206.812 174.82C206.459 174.058 206.282 173.156 206.282 172.116C206.282 171.085 206.459 170.19 206.812 169.432C207.166 168.673 207.658 168.087 208.289 167.674C208.92 167.261 209.648 167.054 210.475 167.054C211.114 167.054 211.619 167.161 211.99 167.374C212.365 167.582 212.65 167.821 212.846 168.089C213.047 168.354 213.202 168.571 213.313 168.741H213.441V163.909H214.949V177H213.492V175.491H213.313C213.202 175.67 213.045 175.896 212.84 176.169C212.635 176.437 212.344 176.678 211.964 176.891C211.585 177.1 211.08 177.205 210.449 177.205ZM210.654 175.849C211.259 175.849 211.77 175.692 212.188 175.376C212.606 175.057 212.923 174.616 213.14 174.053C213.358 173.487 213.466 172.832 213.466 172.091C213.466 171.358 213.36 170.717 213.147 170.167C212.934 169.613 212.618 169.183 212.201 168.876C211.783 168.565 211.268 168.409 210.654 168.409C210.015 168.409 209.482 168.573 209.056 168.901C208.634 169.225 208.317 169.666 208.104 170.224C207.895 170.778 207.79 171.401 207.79 172.091C207.79 172.79 207.897 173.425 208.11 173.996C208.327 174.562 208.647 175.014 209.069 175.351C209.495 175.683 210.023 175.849 210.654 175.849Z" fill="#18191F"/>
<defs>
<filter id="filter0_dd_704_2575" x="0.0817871" y="0.475098" width="264.836" height="294.05" filterUnits="userSpaceOnUse" color-interpolation-filters="sRGB">
<feFlood flood-opacity="0" result="BackgroundImageFix"/>
<feColorMatrix in="SourceAlpha" type="matrix" values="0 0 0 0 0 0 0 0 0 0 0 0 0 0 0 0 0 0 127 0" result="hardAlpha"/>
<feOffset dy="10"/>
<feGaussianBlur stdDeviation="10"/>
<feColorMatrix type="matrix" values="0 0 0 0 0.160784 0 0 0 0 0.160784 0 0 0 0 0.164706 0 0 0 0.07 0"/>
<feBlend mode="normal" in2="BackgroundImageFix" result="effect1_dropShadow_704_2575"/>
<feColorMatrix in="SourceAlpha" type="matrix" values="0 0 0 0 0 0 0 0 0 0 0 0 0 0 0 0 0 0 127 0" result="hardAlpha"/>
<feOffset dy="10"/>
<feGaussianBlur stdDeviation="11"/>
<feColorMatrix type="matrix" values="0 0 0 0 0.160784 0 0 0 0 0.160784 0 0 0 0 0.164706 0 0 0 0.52 0"/>
<feBlend mode="normal" in2="effect1_dropShadow_704_2575" result="effect2_dropShadow_704_2575"/>
<feBlend mode="normal" in="SourceGraphic" in2="effect2_dropShadow_704_2575" result="shape"/>
</filter>
</defs>
</svg>
