<svg width="265" height="295" viewBox="0 0 265 295" fill="none" xmlns="http://www.w3.org/2000/svg">
<g filter="url(#filter0_dd_704_2572)">
<path d="M124.5 14.6188C129.45 11.7607 135.55 11.7607 140.5 14.6188L234.918 69.1312C239.869 71.9893 242.918 77.2714 242.918 82.9876V192.012C242.918 197.729 239.869 203.011 234.918 205.869L140.5 260.381C135.55 263.239 129.45 263.239 124.5 260.381L30.0818 205.869C25.1313 203.011 22.0818 197.729 22.0818 192.012V82.9876C22.0818 77.2714 25.1313 71.9893 30.0818 69.1312L124.5 14.6188Z" fill="white"/>
</g>
<path d="M84.6087 133.205V126.625L97.3246 104.091H105.404L92.978 126.284V126.557H113.705V133.205H84.6087ZM101.467 139V131.261L101.739 128.312V117.182H109.359V139H101.467ZM132.566 139.852C129.521 139.852 126.896 139.131 124.691 137.688C122.487 136.233 120.788 134.148 119.594 131.432C118.401 128.705 117.81 125.426 117.822 121.597C117.833 117.767 118.43 114.517 119.612 111.847C120.805 109.165 122.498 107.125 124.691 105.727C126.896 104.318 129.521 103.614 132.566 103.614C135.612 103.614 138.237 104.318 140.441 105.727C142.657 107.125 144.362 109.165 145.555 111.847C146.748 114.528 147.339 117.778 147.327 121.597C147.327 125.437 146.731 128.722 145.538 131.449C144.344 134.176 142.646 136.261 140.441 137.705C138.248 139.136 135.623 139.852 132.566 139.852ZM132.566 132.949C134.384 132.949 135.856 132.023 136.981 130.17C138.106 128.307 138.663 125.449 138.651 121.597C138.651 119.074 138.396 116.994 137.884 115.358C137.373 113.71 136.663 112.483 135.754 111.676C134.844 110.869 133.782 110.466 132.566 110.466C130.759 110.466 129.299 111.381 128.185 113.21C127.072 115.028 126.509 117.824 126.498 121.597C126.487 124.153 126.731 126.273 127.231 127.955C127.742 129.636 128.458 130.892 129.379 131.722C130.299 132.54 131.362 132.949 132.566 132.949Z" fill="#18191F"/>
<path d="M162.626 137.261V112.58H169.495V137.261H162.626ZM153.711 128.364V121.494H178.393V128.364H153.711Z" fill="#FFAD00"/>
<path d="M74.0999 177V163.909H75.6851V169.739H82.6652V163.909H84.2504V177H82.6652V171.145H75.6851V177H74.0999ZM90.9269 177.205C90.1088 177.205 89.3865 176.998 88.76 176.585C88.1336 176.167 87.6436 175.579 87.2899 174.82C86.9362 174.058 86.7593 173.156 86.7593 172.116C86.7593 171.085 86.9362 170.19 87.2899 169.432C87.6436 168.673 88.1357 168.087 88.7664 167.674C89.3971 167.261 90.1258 167.054 90.9525 167.054C91.5917 167.054 92.0967 167.161 92.4674 167.374C92.8424 167.582 93.1279 167.821 93.324 168.089C93.5242 168.354 93.6798 168.571 93.7906 168.741H93.9184V167.182H95.4269V177H93.9695V175.491H93.7906C93.6798 175.67 93.5221 175.896 93.3176 176.169C93.113 176.437 92.8211 176.678 92.4419 176.891C92.0626 177.1 91.5576 177.205 90.9269 177.205ZM91.1315 175.849C91.7366 175.849 92.248 175.692 92.6656 175.376C93.0832 175.057 93.4007 174.616 93.618 174.053C93.8353 173.487 93.944 172.832 93.944 172.091C93.944 171.358 93.8374 170.717 93.6244 170.167C93.4113 169.613 93.096 169.183 92.6784 168.876C92.2607 168.565 91.7451 168.409 91.1315 168.409C90.4923 168.409 89.9596 168.573 89.5335 168.901C89.1116 169.225 88.7941 169.666 88.5811 170.224C88.3722 170.778 88.2678 171.401 88.2678 172.091C88.2678 172.79 88.3744 173.425 88.5874 173.996C88.8048 174.562 89.1244 175.014 89.5463 175.351C89.9724 175.683 90.5008 175.849 91.1315 175.849ZM98.3992 180.682V167.182H99.8566V168.741H100.036C100.146 168.571 100.3 168.354 100.496 168.089C100.696 167.821 100.982 167.582 101.352 167.374C101.727 167.161 102.234 167.054 102.874 167.054C103.7 167.054 104.429 167.261 105.06 167.674C105.69 168.087 106.183 168.673 106.536 169.432C106.89 170.19 107.067 171.085 107.067 172.116C107.067 173.156 106.89 174.058 106.536 174.82C106.183 175.579 105.693 176.167 105.066 176.585C104.44 176.998 103.717 177.205 102.899 177.205C102.269 177.205 101.764 177.1 101.384 176.891C101.005 176.678 100.713 176.437 100.509 176.169C100.304 175.896 100.146 175.67 100.036 175.491H99.9078V180.682H98.3992ZM99.8822 172.091C99.8822 172.832 99.9909 173.487 100.208 174.053C100.426 174.616 100.743 175.057 101.161 175.376C101.578 175.692 102.09 175.849 102.695 175.849C103.325 175.849 103.852 175.683 104.274 175.351C104.7 175.014 105.019 174.562 105.232 173.996C105.45 173.425 105.558 172.79 105.558 172.091C105.558 171.401 105.452 170.778 105.239 170.224C105.03 169.666 104.712 169.225 104.286 168.901C103.864 168.573 103.334 168.409 102.695 168.409C102.081 168.409 101.565 168.565 101.148 168.876C100.73 169.183 100.415 169.613 100.202 170.167C99.9887 170.717 99.8822 171.358 99.8822 172.091ZM109.368 180.682V167.182H110.825V168.741H111.004C111.115 168.571 111.269 168.354 111.465 168.089C111.665 167.821 111.95 167.582 112.321 167.374C112.696 167.161 113.203 167.054 113.842 167.054C114.669 167.054 115.398 167.261 116.028 167.674C116.659 168.087 117.151 168.673 117.505 169.432C117.859 170.19 118.036 171.085 118.036 172.116C118.036 173.156 117.859 174.058 117.505 174.82C117.151 175.579 116.661 176.167 116.035 176.585C115.408 176.998 114.686 177.205 113.868 177.205C113.237 177.205 112.732 177.1 112.353 176.891C111.974 176.678 111.682 176.437 111.477 176.169C111.273 175.896 111.115 175.67 111.004 175.491H110.877V180.682H109.368ZM110.851 172.091C110.851 172.832 110.96 173.487 111.177 174.053C111.394 174.616 111.712 175.057 112.129 175.376C112.547 175.692 113.058 175.849 113.663 175.849C114.294 175.849 114.82 175.683 115.242 175.351C115.668 175.014 115.988 174.562 116.201 173.996C116.418 173.425 116.527 172.79 116.527 172.091C116.527 171.401 116.421 170.778 116.207 170.224C115.999 169.666 115.681 169.225 115.255 168.901C114.833 168.573 114.303 168.409 113.663 168.409C113.05 168.409 112.534 168.565 112.117 168.876C111.699 169.183 111.384 169.613 111.171 170.167C110.957 170.717 110.851 171.358 110.851 172.091ZM120.957 180.682C120.701 180.682 120.473 180.661 120.273 180.618C120.073 180.58 119.934 180.541 119.857 180.503L120.241 179.173C120.607 179.267 120.931 179.301 121.212 179.276C121.494 179.25 121.743 179.124 121.96 178.898C122.182 178.677 122.384 178.317 122.568 177.818L122.849 177.051L119.218 167.182H120.854L123.565 175.006H123.667L126.377 167.182H128.014L123.846 178.432C123.658 178.939 123.426 179.359 123.149 179.691C122.872 180.028 122.551 180.277 122.184 180.439C121.822 180.601 121.413 180.682 120.957 180.682ZM145.806 168H144.221C144.127 167.544 143.963 167.143 143.728 166.798C143.498 166.453 143.217 166.163 142.885 165.929C142.557 165.69 142.192 165.511 141.792 165.392C141.391 165.273 140.973 165.213 140.539 165.213C139.746 165.213 139.028 165.413 138.385 165.814C137.745 166.214 137.236 166.805 136.857 167.585C136.482 168.364 136.294 169.321 136.294 170.455C136.294 171.588 136.482 172.545 136.857 173.325C137.236 174.104 137.745 174.695 138.385 175.095C139.028 175.496 139.746 175.696 140.539 175.696C140.973 175.696 141.391 175.636 141.792 175.517C142.192 175.398 142.557 175.221 142.885 174.987C143.217 174.748 143.498 174.456 143.728 174.111C143.963 173.761 144.127 173.361 144.221 172.909H145.806C145.687 173.578 145.469 174.177 145.154 174.705C144.839 175.234 144.446 175.683 143.978 176.054C143.509 176.42 142.983 176.7 142.399 176.891C141.819 177.083 141.199 177.179 140.539 177.179C139.422 177.179 138.429 176.906 137.56 176.361C136.691 175.815 136.007 175.04 135.508 174.034C135.01 173.028 134.76 171.835 134.76 170.455C134.76 169.074 135.01 167.881 135.508 166.875C136.007 165.869 136.691 165.094 137.56 164.548C138.429 164.003 139.422 163.73 140.539 163.73C141.199 163.73 141.819 163.826 142.399 164.018C142.983 164.21 143.509 164.491 143.978 164.862C144.446 165.228 144.839 165.675 145.154 166.204C145.469 166.728 145.687 167.327 145.806 168ZM148.163 163.909H149.671V174.443C149.671 174.92 149.725 175.255 149.831 175.447C149.938 175.638 150.157 175.73 150.49 175.722C150.669 175.713 150.801 175.7 150.886 175.683C150.975 175.662 151.056 175.641 151.129 175.619L151.436 176.923C151.304 176.962 151.137 176.996 150.937 177.026C150.737 177.06 150.528 177.077 150.311 177.077C149.595 177.077 149.058 176.881 148.7 176.489C148.342 176.097 148.163 175.551 148.163 174.852V163.909ZM152.821 177V167.182H154.33V177H152.821ZM153.588 165.545C153.294 165.545 153.041 165.445 152.828 165.245C152.619 165.045 152.514 164.804 152.514 164.523C152.514 164.241 152.619 164.001 152.828 163.8C153.041 163.6 153.294 163.5 153.588 163.5C153.882 163.5 154.134 163.6 154.342 163.8C154.555 164.001 154.662 164.241 154.662 164.523C154.662 164.804 154.555 165.045 154.342 165.245C154.134 165.445 153.882 165.545 153.588 165.545ZM161.209 177.205C160.263 177.205 159.447 176.996 158.761 176.578C158.079 176.156 157.553 175.568 157.182 174.814C156.816 174.055 156.632 173.173 156.632 172.168C156.632 171.162 156.816 170.276 157.182 169.509C157.553 168.737 158.068 168.136 158.729 167.706C159.394 167.271 160.169 167.054 161.056 167.054C161.567 167.054 162.072 167.139 162.571 167.31C163.069 167.48 163.523 167.757 163.932 168.141C164.341 168.52 164.667 169.023 164.91 169.649C165.153 170.276 165.274 171.047 165.274 171.963V172.602H157.706V171.298H163.74C163.74 170.744 163.63 170.25 163.408 169.815C163.191 169.381 162.88 169.038 162.475 168.786C162.074 168.535 161.601 168.409 161.056 168.409C160.455 168.409 159.935 168.558 159.496 168.857C159.061 169.151 158.727 169.534 158.492 170.007C158.258 170.48 158.141 170.987 158.141 171.528V172.398C158.141 173.139 158.269 173.768 158.524 174.283C158.784 174.795 159.144 175.185 159.605 175.453C160.065 175.717 160.6 175.849 161.209 175.849C161.605 175.849 161.963 175.794 162.283 175.683C162.607 175.568 162.886 175.398 163.12 175.172C163.355 174.942 163.536 174.656 163.664 174.315L165.121 174.724C164.968 175.219 164.71 175.653 164.348 176.028C163.985 176.399 163.538 176.689 163.005 176.898C162.473 177.102 161.874 177.205 161.209 177.205ZM169.078 171.094V177H167.569V167.182H169.027V168.716H169.154C169.384 168.217 169.734 167.817 170.203 167.514C170.671 167.207 171.277 167.054 172.018 167.054C172.683 167.054 173.264 167.19 173.763 167.463C174.262 167.732 174.649 168.141 174.926 168.69C175.203 169.236 175.342 169.926 175.342 170.761V177H173.833V170.864C173.833 170.092 173.633 169.491 173.233 169.061C172.832 168.626 172.282 168.409 171.583 168.409C171.102 168.409 170.671 168.513 170.292 168.722C169.917 168.931 169.621 169.236 169.404 169.636C169.186 170.037 169.078 170.523 169.078 171.094ZM182.368 167.182V168.46H177.28V167.182H182.368ZM178.763 164.83H180.272V174.188C180.272 174.614 180.334 174.933 180.457 175.146C180.585 175.355 180.747 175.496 180.943 175.568C181.143 175.636 181.354 175.67 181.576 175.67C181.742 175.67 181.878 175.662 181.985 175.645C182.091 175.624 182.177 175.607 182.241 175.594L182.547 176.949C182.445 176.987 182.302 177.026 182.119 177.064C181.936 177.107 181.704 177.128 181.422 177.128C180.996 177.128 180.579 177.036 180.169 176.853C179.765 176.67 179.428 176.391 179.16 176.016C178.895 175.641 178.763 175.168 178.763 174.597V164.83ZM191.416 169.381L190.061 169.764C189.976 169.538 189.85 169.319 189.684 169.106C189.522 168.888 189.301 168.71 189.019 168.569C188.738 168.428 188.378 168.358 187.939 168.358C187.338 168.358 186.837 168.496 186.437 168.773C186.041 169.046 185.842 169.393 185.842 169.815C185.842 170.19 185.979 170.487 186.252 170.704C186.524 170.921 186.95 171.102 187.53 171.247L188.987 171.605C189.865 171.818 190.519 172.144 190.95 172.583C191.38 173.018 191.595 173.578 191.595 174.264C191.595 174.827 191.433 175.33 191.109 175.773C190.79 176.216 190.342 176.565 189.767 176.821C189.192 177.077 188.523 177.205 187.76 177.205C186.759 177.205 185.93 176.987 185.274 176.553C184.617 176.118 184.202 175.483 184.027 174.648L185.459 174.29C185.595 174.818 185.853 175.214 186.232 175.479C186.616 175.743 187.117 175.875 187.734 175.875C188.438 175.875 188.996 175.726 189.409 175.428C189.827 175.125 190.036 174.763 190.036 174.341C190.036 174 189.916 173.714 189.678 173.484C189.439 173.25 189.073 173.075 188.578 172.96L186.942 172.577C186.043 172.364 185.382 172.033 184.96 171.586C184.543 171.134 184.334 170.57 184.334 169.892C184.334 169.338 184.489 168.848 184.801 168.422C185.116 167.996 185.544 167.661 186.085 167.418C186.631 167.175 187.249 167.054 187.939 167.054C188.911 167.054 189.673 167.267 190.227 167.693C190.786 168.119 191.182 168.682 191.416 169.381Z" fill="#18191F"/>
<defs>
<filter id="filter0_dd_704_2572" x="0.0817871" y="0.475098" width="264.836" height="294.05" filterUnits="userSpaceOnUse" color-interpolation-filters="sRGB">
<feFlood flood-opacity="0" result="BackgroundImageFix"/>
<feColorMatrix in="SourceAlpha" type="matrix" values="0 0 0 0 0 0 0 0 0 0 0 0 0 0 0 0 0 0 127 0" result="hardAlpha"/>
<feOffset dy="10"/>
<feGaussianBlur stdDeviation="10"/>
<feColorMatrix type="matrix" values="0 0 0 0 0.160784 0 0 0 0 0.160784 0 0 0 0 0.164706 0 0 0 0.07 0"/>
<feBlend mode="normal" in2="BackgroundImageFix" result="effect1_dropShadow_704_2572"/>
<feColorMatrix in="SourceAlpha" type="matrix" values="0 0 0 0 0 0 0 0 0 0 0 0 0 0 0 0 0 0 127 0" result="hardAlpha"/>
<feOffset dy="10"/>
<feGaussianBlur stdDeviation="11"/>
<feColorMatrix type="matrix" values="0 0 0 0 0.160784 0 0 0 0 0.160784 0 0 0 0 0.164706 0 0 0 0.52 0"/>
<feBlend mode="normal" in2="effect1_dropShadow_704_2572" result="effect2_dropShadow_704_2572"/>
<feBlend mode="normal" in="SourceGraphic" in2="effect2_dropShadow_704_2572" result="shape"/>
</filter>
</defs>
</svg>
