<svg width="179" height="164" viewBox="0 0 179 164" fill="none" xmlns="http://www.w3.org/2000/svg">
<path d="M115.794 52.1719V13.2971H176.742V52.1719H115.794Z" fill="#FF9201"/>
<path d="M176.743 52.1716L151.287 32.4572C148.176 30.3183 144.057 30.3071 140.934 32.4267C132.187 38.3646 115.794 52.1716 115.794 52.1716H176.743Z" fill="#BCDCFF"/>
<path d="M141.932 31.8558H141.754L115.793 13.3035L115.794 52.1719C115.794 52.1719 132.187 38.3649 140.933 32.4269C141.255 32.2091 141.592 32.0285 141.932 31.8558Z" fill="#A7D0FE"/>
<path d="M150.783 31.8558H150.25C150.603 32.0364 150.953 32.2283 151.286 32.4574L176.743 52.1719V13.3035L150.783 31.8558Z" fill="#A7D0FE"/>
<path d="M176.742 13.3034L151.286 33.0179C148.175 35.1568 144.057 35.168 140.934 33.0484C132.187 27.1105 115.794 13.3034 115.794 13.3034H176.742Z" fill="white"/>
<g clip-path="url(#clip0_704_2610)">
<path d="M152.265 64.1728L105.635 18.5886C99.8133 12.8959 90.4383 12.8959 84.6164 18.5886L37.9868 64.1728V137.063H152.265V64.1728Z" fill="#FF9201"/>
<rect x="54.2117" y="30.6858" width="81.8286" height="106.377" rx="4" fill="white"/>
<g clip-path="url(#clip1_704_2610)">
<path fill-rule="evenodd" clip-rule="evenodd" d="M73.7546 65.8201C77.8968 65.8201 81.2546 62.4622 81.2546 58.3201C81.2546 54.1779 77.8968 50.8201 73.7546 50.8201C69.6125 50.8201 66.2546 54.1779 66.2546 58.3201C66.2546 62.4622 69.6125 65.8201 73.7546 65.8201ZM73.7546 70.3201C80.3821 70.3201 85.7546 64.9475 85.7546 58.3201C85.7546 51.6927 80.3821 46.3201 73.7546 46.3201C67.1272 46.3201 61.7546 51.6927 61.7546 58.3201C61.7546 64.9475 67.1272 70.3201 73.7546 70.3201Z" fill="#2EC5CE"/>
<rect x="89.7546" y="51.3201" width="36" height="6" rx="0.5" fill="#2EC5CE"/>
<rect opacity="0.4" x="89.7546" y="60.3201" width="16" height="5" rx="0.5" fill="#2EC5CE"/>
</g>
<path d="M152.265 137.063L104.535 100.098C98.7022 96.088 90.98 96.0669 85.1243 100.041C68.7233 111.175 37.9868 137.063 37.9868 137.063H152.265Z" fill="#FFDC81"/>
<path d="M86.9951 98.9705H86.6607L37.9868 65.1104V137.063C37.9868 137.063 68.7233 111.175 85.1222 100.041C85.7254 99.6329 86.3581 99.2943 86.9951 98.9705Z" fill="#FFCA00"/>
<path d="M103.591 98.9705H102.59C103.253 99.3091 103.909 99.6688 104.533 100.098L152.265 137.063V65.1104L103.591 98.9705Z" fill="#FFB800"/>
</g>
<path d="M2.25684 150.366V111.491H63.205V150.366H2.25684Z" fill="#FF9201"/>
<path d="M63.2055 150.366L37.7495 130.652C34.6389 128.513 30.5204 128.501 27.3973 130.621C18.6501 136.559 2.25732 150.366 2.25732 150.366H63.2055Z" fill="#BCDCFF"/>
<path d="M28.3951 130.05H28.2168L2.25635 111.498L2.25735 150.366C2.25735 150.366 18.6502 136.559 27.3962 130.621C27.7179 130.403 28.0554 130.223 28.3951 130.05Z" fill="#A7D0FE"/>
<path d="M37.2463 130.05H36.7124C37.0657 130.231 37.4156 130.423 37.7485 130.652L63.2057 150.366V111.498L37.2463 130.05Z" fill="#A7D0FE"/>
<path d="M63.205 111.498L37.749 131.212C34.6384 133.351 30.5199 133.362 27.3968 131.243C18.6496 125.305 2.25684 111.498 2.25684 111.498H63.205Z" fill="white"/>
<circle cx="148.314" cy="124.789" r="24.5486" fill="white"/>
<g opacity="0.4">
<path d="M154.452 117.328C154.452 120.955 151.508 123.895 147.876 123.895C144.245 123.895 141.301 120.955 141.301 117.328C141.301 113.701 144.245 110.761 147.876 110.761C151.508 110.761 154.452 113.701 154.452 117.328Z" fill="#2EC5CE"/>
<path d="M160.589 138.78C160.589 138.78 152.317 138.862 147 138.78C142.707 138.714 136.041 138.78 136.041 138.78C136.041 138.78 137.794 125.646 148.315 125.646C158.836 125.646 160.589 138.78 160.589 138.78Z" fill="#2EC5CE"/>
</g>
<circle cx="166.725" cy="106.377" r="10.2286" fill="#2EC5CE"/>
<path fill-rule="evenodd" clip-rule="evenodd" d="M166.725 101.604C167.055 101.604 167.322 101.871 167.322 102.2V105.78H170.902C171.232 105.78 171.499 106.048 171.499 106.377C171.499 106.707 171.232 106.974 170.902 106.974H167.322V110.554C167.322 110.883 167.055 111.15 166.725 111.15C166.396 111.15 166.129 110.883 166.129 110.554V106.974H162.549C162.219 106.974 161.952 106.707 161.952 106.377C161.952 106.048 162.219 105.78 162.549 105.78H166.129V102.2C166.129 101.871 166.396 101.604 166.725 101.604Z" fill="white"/>
<defs>
<clipPath id="clip0_704_2610">
<rect width="122.743" height="122.743" fill="white" transform="translate(33.7544 14.3201)"/>
</clipPath>
<clipPath id="clip1_704_2610">
<rect width="64" height="24" fill="white" transform="translate(61.7546 46.3201)"/>
</clipPath>
</defs>
</svg>
